<svg width="924" height="565" viewBox="0 0 924 565" fill="none" xmlns="http://www.w3.org/2000/svg">
<path d="M462 9.23193V528.072" stroke="#181818"/>
<path d="M462 9.23193V528.072" stroke="#181818"/>
<path d="M462 9.23193V528.072" stroke="#181818"/>
<path d="M462 9.23193V528.072" stroke="#181818"/>
<path d="M462 9.23193V528.072" stroke="#181818"/>
<path d="M19.0002 528.995H903.428" stroke="#181818"/>
<path d="M19.0002 399.747H903.428" stroke="#181818"/>
<path d="M19.0002 270.499H903.428" stroke="#181818"/>
<path d="M19.0002 139.404H903.428" stroke="#181818"/>
<path d="M19.0002 8.30853H903.428" stroke="#181818"/>
<path d="M19.0002 528.995H903.428" stroke="#181818"/>
<path d="M462 9.23193V528.072" stroke="#181818"/>
<path d="M455.409 544.734V551.843H454.481V544.734H455.409ZM457.694 544.734V545.505H452.201V544.734H457.694ZM460.316 551.941C459.948 551.941 459.615 551.879 459.315 551.755C459.019 551.628 458.763 551.451 458.549 551.223C458.337 550.995 458.174 550.725 458.06 550.413C457.946 550.1 457.889 549.758 457.889 549.387V549.182C457.889 548.752 457.953 548.37 458.08 548.035C458.207 547.696 458.379 547.41 458.597 547.175C458.816 546.941 459.063 546.763 459.34 546.643C459.616 546.523 459.903 546.462 460.199 546.462C460.577 546.462 460.902 546.527 461.176 546.658C461.452 546.788 461.679 546.97 461.854 547.205C462.03 547.436 462.16 547.709 462.245 548.025C462.33 548.337 462.372 548.679 462.372 549.05V549.456H458.427V548.718H461.469V548.65C461.456 548.415 461.407 548.188 461.322 547.966C461.241 547.745 461.11 547.563 460.931 547.419C460.752 547.276 460.508 547.205 460.199 547.205C459.994 547.205 459.805 547.248 459.633 547.336C459.46 547.421 459.312 547.548 459.188 547.717C459.065 547.886 458.969 548.093 458.9 548.337C458.832 548.581 458.798 548.863 458.798 549.182V549.387C458.798 549.638 458.832 549.874 458.9 550.095C458.972 550.313 459.074 550.505 459.208 550.671C459.345 550.837 459.509 550.968 459.701 551.062C459.896 551.156 460.118 551.204 460.365 551.204C460.684 551.204 460.954 551.138 461.176 551.008C461.397 550.878 461.591 550.704 461.757 550.486L462.304 550.92C462.19 551.093 462.045 551.257 461.869 551.414C461.693 551.57 461.477 551.697 461.22 551.794C460.966 551.892 460.665 551.941 460.316 551.941ZM464.037 546.56L465.194 548.484L466.366 546.56H467.426L465.697 549.167L467.479 551.843H466.434L465.214 549.861L463.993 551.843H462.943L464.721 549.167L462.997 546.56H464.037ZM470.599 546.56V547.253H467.743V546.56H470.599ZM468.71 545.276H469.613V550.535C469.613 550.714 469.641 550.849 469.696 550.94C469.751 551.031 469.823 551.091 469.911 551.121C469.999 551.15 470.093 551.164 470.194 551.164C470.269 551.164 470.347 551.158 470.429 551.145C470.513 551.129 470.577 551.116 470.619 551.106L470.624 551.843C470.552 551.866 470.458 551.887 470.341 551.907C470.227 551.929 470.088 551.941 469.926 551.941C469.704 551.941 469.501 551.897 469.315 551.809C469.13 551.721 468.982 551.575 468.871 551.37C468.763 551.161 468.71 550.881 468.71 550.53V545.276Z" fill="#A3A3A3"/>
<path d="M455.409 544.734V551.843H454.481V544.734H455.409ZM457.694 544.734V545.505H452.201V544.734H457.694ZM460.316 551.941C459.948 551.941 459.615 551.879 459.315 551.755C459.019 551.628 458.763 551.451 458.549 551.223C458.337 550.995 458.174 550.725 458.06 550.413C457.946 550.1 457.889 549.758 457.889 549.387V549.182C457.889 548.752 457.953 548.37 458.08 548.035C458.207 547.696 458.379 547.41 458.597 547.175C458.816 546.941 459.063 546.763 459.34 546.643C459.616 546.523 459.903 546.462 460.199 546.462C460.577 546.462 460.902 546.527 461.176 546.658C461.452 546.788 461.679 546.97 461.854 547.205C462.03 547.436 462.16 547.709 462.245 548.025C462.33 548.337 462.372 548.679 462.372 549.05V549.456H458.427V548.718H461.469V548.65C461.456 548.415 461.407 548.188 461.322 547.966C461.241 547.745 461.11 547.563 460.931 547.419C460.752 547.276 460.508 547.205 460.199 547.205C459.994 547.205 459.805 547.248 459.633 547.336C459.46 547.421 459.312 547.548 459.188 547.717C459.065 547.886 458.969 548.093 458.9 548.337C458.832 548.581 458.798 548.863 458.798 549.182V549.387C458.798 549.638 458.832 549.874 458.9 550.095C458.972 550.313 459.074 550.505 459.208 550.671C459.345 550.837 459.509 550.968 459.701 551.062C459.896 551.156 460.118 551.204 460.365 551.204C460.684 551.204 460.954 551.138 461.176 551.008C461.397 550.878 461.591 550.704 461.757 550.486L462.304 550.92C462.19 551.093 462.045 551.257 461.869 551.414C461.693 551.57 461.477 551.697 461.22 551.794C460.966 551.892 460.665 551.941 460.316 551.941ZM464.037 546.56L465.194 548.484L466.366 546.56H467.426L465.697 549.167L467.479 551.843H466.434L465.214 549.861L463.993 551.843H462.943L464.721 549.167L462.997 546.56H464.037ZM470.599 546.56V547.253H467.743V546.56H470.599ZM468.71 545.276H469.613V550.535C469.613 550.714 469.641 550.849 469.696 550.94C469.751 551.031 469.823 551.091 469.911 551.121C469.999 551.15 470.093 551.164 470.194 551.164C470.269 551.164 470.347 551.158 470.429 551.145C470.513 551.129 470.577 551.116 470.619 551.106L470.624 551.843C470.552 551.866 470.458 551.887 470.341 551.907C470.227 551.929 470.088 551.941 469.926 551.941C469.704 551.941 469.501 551.897 469.315 551.809C469.13 551.721 468.982 551.575 468.871 551.37C468.763 551.161 468.71 550.881 468.71 550.53V545.276Z" fill="#A3A3A3"/>
<path d="M455.409 544.734V551.843H454.481V544.734H455.409ZM457.694 544.734V545.505H452.201V544.734H457.694ZM460.316 551.941C459.948 551.941 459.615 551.879 459.315 551.755C459.019 551.628 458.763 551.451 458.549 551.223C458.337 550.995 458.174 550.725 458.06 550.413C457.946 550.1 457.889 549.758 457.889 549.387V549.182C457.889 548.752 457.953 548.37 458.08 548.035C458.207 547.696 458.379 547.41 458.597 547.175C458.816 546.941 459.063 546.763 459.34 546.643C459.616 546.523 459.903 546.462 460.199 546.462C460.577 546.462 460.902 546.527 461.176 546.658C461.452 546.788 461.679 546.97 461.854 547.205C462.03 547.436 462.16 547.709 462.245 548.025C462.33 548.337 462.372 548.679 462.372 549.05V549.456H458.427V548.718H461.469V548.65C461.456 548.415 461.407 548.188 461.322 547.966C461.241 547.745 461.11 547.563 460.931 547.419C460.752 547.276 460.508 547.205 460.199 547.205C459.994 547.205 459.805 547.248 459.633 547.336C459.46 547.421 459.312 547.548 459.188 547.717C459.065 547.886 458.969 548.093 458.9 548.337C458.832 548.581 458.798 548.863 458.798 549.182V549.387C458.798 549.638 458.832 549.874 458.9 550.095C458.972 550.313 459.074 550.505 459.208 550.671C459.345 550.837 459.509 550.968 459.701 551.062C459.896 551.156 460.118 551.204 460.365 551.204C460.684 551.204 460.954 551.138 461.176 551.008C461.397 550.878 461.591 550.704 461.757 550.486L462.304 550.92C462.19 551.093 462.045 551.257 461.869 551.414C461.693 551.57 461.477 551.697 461.22 551.794C460.966 551.892 460.665 551.941 460.316 551.941ZM464.037 546.56L465.194 548.484L466.366 546.56H467.426L465.697 549.167L467.479 551.843H466.434L465.214 549.861L463.993 551.843H462.943L464.721 549.167L462.997 546.56H464.037ZM470.599 546.56V547.253H467.743V546.56H470.599ZM468.71 545.276H469.613V550.535C469.613 550.714 469.641 550.849 469.696 550.94C469.751 551.031 469.823 551.091 469.911 551.121C469.999 551.15 470.093 551.164 470.194 551.164C470.269 551.164 470.347 551.158 470.429 551.145C470.513 551.129 470.577 551.116 470.619 551.106L470.624 551.843C470.552 551.866 470.458 551.887 470.341 551.907C470.227 551.929 470.088 551.941 469.926 551.941C469.704 551.941 469.501 551.897 469.315 551.809C469.13 551.721 468.982 551.575 468.871 551.37C468.763 551.161 468.71 550.881 468.71 550.53V545.276Z" fill="#A3A3A3"/>
<path d="M455.409 544.734V551.843H454.481V544.734H455.409ZM457.694 544.734V545.505H452.201V544.734H457.694ZM460.316 551.941C459.948 551.941 459.615 551.879 459.315 551.755C459.019 551.628 458.763 551.451 458.549 551.223C458.337 550.995 458.174 550.725 458.06 550.413C457.946 550.1 457.889 549.758 457.889 549.387V549.182C457.889 548.752 457.953 548.37 458.08 548.035C458.207 547.696 458.379 547.41 458.597 547.175C458.816 546.941 459.063 546.763 459.34 546.643C459.616 546.523 459.903 546.462 460.199 546.462C460.577 546.462 460.902 546.527 461.176 546.658C461.452 546.788 461.679 546.97 461.854 547.205C462.03 547.436 462.16 547.709 462.245 548.025C462.33 548.337 462.372 548.679 462.372 549.05V549.456H458.427V548.718H461.469V548.65C461.456 548.415 461.407 548.188 461.322 547.966C461.241 547.745 461.11 547.563 460.931 547.419C460.752 547.276 460.508 547.205 460.199 547.205C459.994 547.205 459.805 547.248 459.633 547.336C459.46 547.421 459.312 547.548 459.188 547.717C459.065 547.886 458.969 548.093 458.9 548.337C458.832 548.581 458.798 548.863 458.798 549.182V549.387C458.798 549.638 458.832 549.874 458.9 550.095C458.972 550.313 459.074 550.505 459.208 550.671C459.345 550.837 459.509 550.968 459.701 551.062C459.896 551.156 460.118 551.204 460.365 551.204C460.684 551.204 460.954 551.138 461.176 551.008C461.397 550.878 461.591 550.704 461.757 550.486L462.304 550.92C462.19 551.093 462.045 551.257 461.869 551.414C461.693 551.57 461.477 551.697 461.22 551.794C460.966 551.892 460.665 551.941 460.316 551.941ZM464.037 546.56L465.194 548.484L466.366 546.56H467.426L465.697 549.167L467.479 551.843H466.434L465.214 549.861L463.993 551.843H462.943L464.721 549.167L462.997 546.56H464.037ZM470.599 546.56V547.253H467.743V546.56H470.599ZM468.71 545.276H469.613V550.535C469.613 550.714 469.641 550.849 469.696 550.94C469.751 551.031 469.823 551.091 469.911 551.121C469.999 551.15 470.093 551.164 470.194 551.164C470.269 551.164 470.347 551.158 470.429 551.145C470.513 551.129 470.577 551.116 470.619 551.106L470.624 551.843C470.552 551.866 470.458 551.887 470.341 551.907C470.227 551.929 470.088 551.941 469.926 551.941C469.704 551.941 469.501 551.897 469.315 551.809C469.13 551.721 468.982 551.575 468.871 551.37C468.763 551.161 468.71 550.881 468.71 550.53V545.276Z" fill="#A3A3A3"/>
<path d="M455.409 544.734V551.843H454.481V544.734H455.409ZM457.694 544.734V545.505H452.201V544.734H457.694ZM460.316 551.941C459.948 551.941 459.615 551.879 459.315 551.755C459.019 551.628 458.763 551.451 458.549 551.223C458.337 550.995 458.174 550.725 458.06 550.413C457.946 550.1 457.889 549.758 457.889 549.387V549.182C457.889 548.752 457.953 548.37 458.08 548.035C458.207 547.696 458.379 547.41 458.597 547.175C458.816 546.941 459.063 546.763 459.34 546.643C459.616 546.523 459.903 546.462 460.199 546.462C460.577 546.462 460.902 546.527 461.176 546.658C461.452 546.788 461.679 546.97 461.854 547.205C462.03 547.436 462.16 547.709 462.245 548.025C462.33 548.337 462.372 548.679 462.372 549.05V549.456H458.427V548.718H461.469V548.65C461.456 548.415 461.407 548.188 461.322 547.966C461.241 547.745 461.11 547.563 460.931 547.419C460.752 547.276 460.508 547.205 460.199 547.205C459.994 547.205 459.805 547.248 459.633 547.336C459.46 547.421 459.312 547.548 459.188 547.717C459.065 547.886 458.969 548.093 458.9 548.337C458.832 548.581 458.798 548.863 458.798 549.182V549.387C458.798 549.638 458.832 549.874 458.9 550.095C458.972 550.313 459.074 550.505 459.208 550.671C459.345 550.837 459.509 550.968 459.701 551.062C459.896 551.156 460.118 551.204 460.365 551.204C460.684 551.204 460.954 551.138 461.176 551.008C461.397 550.878 461.591 550.704 461.757 550.486L462.304 550.92C462.19 551.093 462.045 551.257 461.869 551.414C461.693 551.57 461.477 551.697 461.22 551.794C460.966 551.892 460.665 551.941 460.316 551.941ZM464.037 546.56L465.194 548.484L466.366 546.56H467.426L465.697 549.167L467.479 551.843H466.434L465.214 549.861L463.993 551.843H462.943L464.721 549.167L462.997 546.56H464.037ZM470.599 546.56V547.253H467.743V546.56H470.599ZM468.71 545.276H469.613V550.535C469.613 550.714 469.641 550.849 469.696 550.94C469.751 551.031 469.823 551.091 469.911 551.121C469.999 551.15 470.093 551.164 470.194 551.164C470.269 551.164 470.347 551.158 470.429 551.145C470.513 551.129 470.577 551.116 470.619 551.106L470.624 551.843C470.552 551.866 470.458 551.887 470.341 551.907C470.227 551.929 470.088 551.941 469.926 551.941C469.704 551.941 469.501 551.897 469.315 551.809C469.13 551.721 468.982 551.575 468.871 551.37C468.763 551.161 468.71 550.881 468.71 550.53V545.276Z" fill="#A3A3A3"/>
<path d="M466.507 523.719V524.802C466.507 525.385 466.455 525.877 466.351 526.277C466.247 526.677 466.097 527 465.902 527.244C465.707 527.488 465.471 527.665 465.194 527.776C464.921 527.884 464.611 527.937 464.266 527.937C463.993 527.937 463.741 527.903 463.509 527.835C463.278 527.766 463.07 527.657 462.884 527.508C462.702 527.355 462.546 527.156 462.416 526.912C462.285 526.668 462.186 526.372 462.118 526.023C462.049 525.675 462.015 525.268 462.015 524.802V523.719C462.015 523.136 462.067 522.648 462.172 522.254C462.279 521.86 462.43 521.544 462.626 521.306C462.821 521.066 463.055 520.893 463.329 520.789C463.605 520.685 463.915 520.633 464.257 520.633C464.533 520.633 464.787 520.667 465.018 520.735C465.253 520.8 465.461 520.906 465.643 521.052C465.826 521.196 465.98 521.388 466.107 521.629C466.237 521.866 466.337 522.158 466.405 522.503C466.473 522.848 466.507 523.253 466.507 523.719ZM465.599 524.949V523.567C465.599 523.248 465.58 522.968 465.541 522.727C465.505 522.483 465.451 522.275 465.38 522.102C465.308 521.93 465.217 521.79 465.106 521.682C464.999 521.575 464.873 521.497 464.73 521.448C464.59 521.396 464.432 521.37 464.257 521.37C464.042 521.37 463.851 521.411 463.685 521.492C463.519 521.57 463.379 521.695 463.265 521.868C463.155 522.04 463.07 522.267 463.011 522.547C462.953 522.827 462.923 523.167 462.923 523.567V524.949C462.923 525.268 462.941 525.55 462.977 525.794C463.016 526.038 463.073 526.249 463.148 526.428C463.223 526.604 463.314 526.749 463.422 526.863C463.529 526.977 463.653 527.062 463.793 527.117C463.936 527.169 464.094 527.195 464.266 527.195C464.488 527.195 464.681 527.153 464.847 527.068C465.013 526.983 465.152 526.852 465.262 526.673C465.376 526.49 465.461 526.258 465.516 525.974C465.572 525.688 465.599 525.346 465.599 524.949Z" fill="#A3A3A3"/>
<path d="M467.156 396.003V396.745H462.502V396.096L464.832 393.503C465.118 393.184 465.339 392.914 465.496 392.692C465.655 392.468 465.766 392.267 465.828 392.092C465.893 391.913 465.925 391.73 465.925 391.545C465.925 391.31 465.876 391.099 465.779 390.91C465.684 390.718 465.544 390.565 465.359 390.451C465.173 390.337 464.949 390.28 464.685 390.28C464.369 390.28 464.106 390.342 463.894 390.466C463.686 390.586 463.529 390.755 463.425 390.973C463.321 391.192 463.269 391.442 463.269 391.725H462.366C462.366 391.325 462.454 390.959 462.629 390.627C462.805 390.295 463.066 390.031 463.411 389.836C463.756 389.637 464.181 389.538 464.685 389.538C465.134 389.538 465.518 389.618 465.837 389.777C466.156 389.933 466.401 390.155 466.57 390.441C466.742 390.724 466.829 391.056 466.829 391.437C466.829 391.646 466.793 391.857 466.721 392.072C466.653 392.284 466.557 392.495 466.433 392.707C466.313 392.918 466.171 393.127 466.008 393.332C465.849 393.537 465.678 393.739 465.496 393.937L463.591 396.003H467.156ZM472.585 392.624V393.708C472.585 394.291 472.533 394.782 472.429 395.182C472.325 395.583 472.175 395.905 471.98 396.149C471.785 396.393 471.549 396.571 471.272 396.681C470.999 396.789 470.689 396.843 470.344 396.843C470.071 396.843 469.819 396.808 469.587 396.74C469.356 396.672 469.148 396.563 468.962 396.413C468.78 396.26 468.624 396.061 468.494 395.817C468.363 395.573 468.264 395.277 468.196 394.929C468.127 394.58 468.093 394.173 468.093 393.708V392.624C468.093 392.041 468.145 391.553 468.25 391.159C468.357 390.765 468.508 390.449 468.704 390.212C468.899 389.971 469.133 389.798 469.407 389.694C469.683 389.59 469.993 389.538 470.335 389.538C470.611 389.538 470.865 389.572 471.096 389.64C471.331 389.706 471.539 389.811 471.721 389.958C471.904 390.101 472.058 390.293 472.185 390.534C472.315 390.772 472.415 391.063 472.483 391.408C472.551 391.753 472.585 392.158 472.585 392.624ZM471.677 393.854V392.472C471.677 392.153 471.658 391.874 471.619 391.633C471.583 391.388 471.529 391.18 471.458 391.008C471.386 390.835 471.295 390.695 471.184 390.588C471.077 390.48 470.951 390.402 470.808 390.353C470.668 390.301 470.51 390.275 470.335 390.275C470.12 390.275 469.929 390.316 469.763 390.397C469.597 390.475 469.457 390.601 469.343 390.773C469.233 390.946 469.148 391.172 469.089 391.452C469.031 391.732 469.001 392.072 469.001 392.472V393.854C469.001 394.173 469.019 394.455 469.055 394.699C469.094 394.943 469.151 395.155 469.226 395.334C469.301 395.51 469.392 395.654 469.5 395.768C469.607 395.882 469.731 395.967 469.871 396.022C470.014 396.074 470.172 396.1 470.344 396.1C470.566 396.1 470.759 396.058 470.925 395.973C471.091 395.889 471.23 395.757 471.34 395.578C471.454 395.396 471.539 395.163 471.594 394.88C471.65 394.593 471.677 394.251 471.677 393.854Z" fill="#A3A3A3"/>
<path d="M467.302 265.104V265.846H462.166V265.314L465.349 260.387H466.086L465.295 261.813L463.191 265.104H467.302ZM466.311 260.387V267.496H465.408V260.387H466.311ZM472.585 263.375V264.459C472.585 265.042 472.533 265.534 472.429 265.934C472.325 266.334 472.175 266.657 471.98 266.901C471.785 267.145 471.549 267.322 471.272 267.433C470.999 267.54 470.689 267.594 470.344 267.594C470.071 267.594 469.819 267.56 469.587 267.492C469.356 267.423 469.148 267.314 468.962 267.164C468.78 267.011 468.624 266.813 468.494 266.569C468.363 266.325 468.264 266.028 468.196 265.68C468.127 265.332 468.093 264.925 468.093 264.459V263.375C468.093 262.793 468.145 262.304 468.25 261.91C468.357 261.517 468.508 261.201 468.704 260.963C468.899 260.722 469.133 260.55 469.407 260.446C469.683 260.341 469.993 260.289 470.335 260.289C470.611 260.289 470.865 260.324 471.096 260.392C471.331 260.457 471.539 260.563 471.721 260.709C471.904 260.853 472.058 261.045 472.185 261.285C472.315 261.523 472.415 261.814 472.483 262.159C472.551 262.505 472.585 262.91 472.585 263.375ZM471.677 264.606V263.224C471.677 262.905 471.658 262.625 471.619 262.384C471.583 262.14 471.529 261.932 471.458 261.759C471.386 261.587 471.295 261.447 471.184 261.339C471.077 261.232 470.951 261.154 470.808 261.105C470.668 261.053 470.51 261.027 470.335 261.027C470.12 261.027 469.929 261.067 469.763 261.149C469.597 261.227 469.457 261.352 469.343 261.525C469.233 261.697 469.148 261.923 469.089 262.203C469.031 262.483 469.001 262.824 469.001 263.224V264.606C469.001 264.925 469.019 265.206 469.055 265.451C469.094 265.695 469.151 265.906 469.226 266.085C469.301 266.261 469.392 266.406 469.5 266.52C469.607 266.634 469.731 266.718 469.871 266.774C470.014 266.826 470.172 266.852 470.344 266.852C470.566 266.852 470.759 266.81 470.925 266.725C471.091 266.64 471.23 266.508 471.34 266.329C471.454 266.147 471.539 265.914 471.594 265.631C471.65 265.345 471.677 265.003 471.677 264.606Z" fill="#A3A3A3"/>
<path d="M465.964 131.129H466.043V131.896H465.964C465.486 131.896 465.085 131.974 464.763 132.13C464.441 132.283 464.185 132.49 463.997 132.75C463.808 133.008 463.671 133.297 463.586 133.62C463.505 133.942 463.464 134.269 463.464 134.601V135.646C463.464 135.962 463.502 136.242 463.577 136.486C463.652 136.727 463.754 136.93 463.884 137.096C464.015 137.262 464.161 137.388 464.324 137.472C464.49 137.557 464.662 137.599 464.841 137.599C465.05 137.599 465.235 137.56 465.398 137.482C465.561 137.401 465.697 137.288 465.808 137.145C465.922 136.999 466.008 136.826 466.067 136.627C466.126 136.429 466.155 136.211 466.155 135.973C466.155 135.762 466.129 135.558 466.077 135.363C466.025 135.164 465.945 134.988 465.837 134.835C465.73 134.679 465.595 134.557 465.432 134.469C465.273 134.378 465.082 134.333 464.861 134.333C464.61 134.333 464.376 134.394 464.158 134.518C463.943 134.639 463.765 134.798 463.626 134.997C463.489 135.192 463.411 135.405 463.391 135.636L462.913 135.631C462.958 135.267 463.043 134.956 463.167 134.699C463.293 134.438 463.45 134.227 463.635 134.064C463.824 133.898 464.034 133.778 464.265 133.703C464.5 133.625 464.747 133.585 465.007 133.585C465.362 133.585 465.668 133.652 465.925 133.786C466.182 133.919 466.394 134.098 466.56 134.323C466.726 134.544 466.848 134.795 466.926 135.075C467.008 135.351 467.048 135.636 467.048 135.929C467.048 136.264 467.001 136.579 466.907 136.872C466.812 137.165 466.671 137.422 466.482 137.643C466.296 137.864 466.067 138.037 465.793 138.161C465.52 138.284 465.203 138.346 464.841 138.346C464.457 138.346 464.122 138.268 463.835 138.112C463.549 137.952 463.311 137.741 463.123 137.477C462.934 137.213 462.792 136.92 462.698 136.598C462.603 136.276 462.556 135.949 462.556 135.617V135.192C462.556 134.691 462.607 134.199 462.708 133.717C462.808 133.236 462.983 132.799 463.23 132.409C463.481 132.018 463.827 131.707 464.27 131.476C464.713 131.245 465.278 131.129 465.964 131.129ZM472.585 134.127V135.211C472.585 135.794 472.533 136.286 472.429 136.686C472.325 137.086 472.175 137.409 471.98 137.653C471.785 137.897 471.549 138.074 471.272 138.185C470.999 138.292 470.689 138.346 470.344 138.346C470.071 138.346 469.819 138.312 469.587 138.244C469.356 138.175 469.148 138.066 468.962 137.917C468.78 137.764 468.624 137.565 468.494 137.321C468.363 137.077 468.264 136.78 468.196 136.432C468.127 136.084 468.093 135.677 468.093 135.211V134.127C468.093 133.545 468.145 133.056 468.25 132.663C468.357 132.269 468.508 131.953 468.704 131.715C468.899 131.474 469.133 131.302 469.407 131.198C469.683 131.094 469.993 131.042 470.335 131.042C470.611 131.042 470.865 131.076 471.096 131.144C471.331 131.209 471.539 131.315 471.721 131.461C471.904 131.605 472.058 131.797 472.185 132.038C472.315 132.275 472.415 132.567 472.483 132.912C472.551 133.257 472.585 133.662 472.585 134.127ZM471.677 135.358V133.976C471.677 133.657 471.658 133.377 471.619 133.136C471.583 132.892 471.529 132.684 471.458 132.511C471.386 132.339 471.295 132.199 471.184 132.091C471.077 131.984 470.951 131.906 470.808 131.857C470.668 131.805 470.51 131.779 470.335 131.779C470.12 131.779 469.929 131.819 469.763 131.901C469.597 131.979 469.457 132.104 469.343 132.277C469.233 132.449 469.148 132.676 469.089 132.956C469.031 133.236 469.001 133.576 469.001 133.976V135.358C469.001 135.677 469.019 135.958 469.055 136.203C469.094 136.447 469.151 136.658 469.226 136.837C469.301 137.013 469.392 137.158 469.5 137.272C469.607 137.386 469.731 137.471 469.871 137.526C470.014 137.578 470.172 137.604 470.344 137.604C470.566 137.604 470.759 137.562 470.925 137.477C471.091 137.392 471.23 137.261 471.34 137.082C471.454 136.899 471.539 136.667 471.594 136.383C471.65 136.097 471.677 135.755 471.677 135.358Z" fill="#A3A3A3"/>
<path d="M466.98 7.07617C466.98 7.50911 466.879 7.87695 466.677 8.17969C466.479 8.47917 466.209 8.70703 465.867 8.86328C465.528 9.01953 465.146 9.09766 464.719 9.09766C464.293 9.09766 463.909 9.01953 463.567 8.86328C463.225 8.70703 462.955 8.47917 462.756 8.17969C462.558 7.87695 462.459 7.50911 462.459 7.07617C462.459 6.79297 462.512 6.53418 462.62 6.2998C462.73 6.06217 462.885 5.85547 463.084 5.67969C463.285 5.50391 463.523 5.36882 463.796 5.27441C464.073 5.17676 464.377 5.12793 464.71 5.12793C465.146 5.12793 465.535 5.21257 465.876 5.38184C466.218 5.54785 466.487 5.77734 466.682 6.07031C466.881 6.36328 466.98 6.69857 466.98 7.07617ZM466.072 7.05664C466.072 6.79297 466.015 6.56022 465.901 6.3584C465.787 6.15332 465.627 5.99382 465.422 5.87988C465.217 5.76595 464.98 5.70898 464.71 5.70898C464.433 5.70898 464.194 5.76595 463.992 5.87988C463.793 5.99382 463.639 6.15332 463.528 6.3584C463.417 6.56022 463.362 6.79297 463.362 7.05664C463.362 7.33008 463.416 7.56445 463.523 7.75977C463.634 7.95182 463.79 8.09993 463.992 8.2041C464.197 8.30501 464.439 8.35547 464.719 8.35547C464.999 8.35547 465.24 8.30501 465.442 8.2041C465.644 8.09993 465.798 7.95182 465.906 7.75977C466.016 7.56445 466.072 7.33008 466.072 7.05664ZM466.814 3.74121C466.814 4.08626 466.723 4.39714 466.541 4.67383C466.358 4.95052 466.109 5.16862 465.793 5.32812C465.478 5.48763 465.12 5.56738 464.719 5.56738C464.312 5.56738 463.949 5.48763 463.63 5.32812C463.315 5.16862 463.067 4.95052 462.888 4.67383C462.709 4.39714 462.62 4.08626 462.62 3.74121C462.62 3.3278 462.709 2.97624 462.888 2.68652C463.071 2.39681 463.32 2.17546 463.635 2.02246C463.951 1.86947 464.311 1.79297 464.714 1.79297C465.121 1.79297 465.483 1.86947 465.798 2.02246C466.114 2.17546 466.362 2.39681 466.541 2.68652C466.723 2.97624 466.814 3.3278 466.814 3.74121ZM465.911 3.75586C465.911 3.51823 465.86 3.30827 465.759 3.12598C465.658 2.94368 465.518 2.80046 465.339 2.69629C465.16 2.58887 464.952 2.53516 464.714 2.53516C464.477 2.53516 464.268 2.58561 464.089 2.68652C463.914 2.78418 463.775 2.92415 463.674 3.10645C463.577 3.28874 463.528 3.50521 463.528 3.75586C463.528 4 463.577 4.21322 463.674 4.39551C463.775 4.5778 463.915 4.7194 464.094 4.82031C464.273 4.92122 464.482 4.97168 464.719 4.97168C464.957 4.97168 465.164 4.92122 465.339 4.82031C465.518 4.7194 465.658 4.5778 465.759 4.39551C465.86 4.21322 465.911 4 465.911 3.75586ZM472.585 4.87891V5.96289C472.585 6.54557 472.533 7.03711 472.429 7.4375C472.325 7.83789 472.175 8.16016 471.98 8.4043C471.785 8.64844 471.549 8.82585 471.272 8.93652C470.999 9.04395 470.689 9.09766 470.344 9.09766C470.071 9.09766 469.819 9.06348 469.587 8.99512C469.356 8.92676 469.148 8.81771 468.962 8.66797C468.78 8.51497 468.624 8.31641 468.494 8.07227C468.363 7.82812 468.264 7.5319 468.196 7.18359C468.127 6.83529 468.093 6.42839 468.093 5.96289V4.87891C468.093 4.29622 468.145 3.80794 468.25 3.41406C468.357 3.02018 468.508 2.70443 468.704 2.4668C468.899 2.22591 469.133 2.05339 469.407 1.94922C469.683 1.84505 469.993 1.79297 470.335 1.79297C470.611 1.79297 470.865 1.82715 471.096 1.89551C471.331 1.96061 471.539 2.06641 471.721 2.21289C471.904 2.35612 472.058 2.54818 472.185 2.78906C472.315 3.02669 472.415 3.31803 472.483 3.66309C472.551 4.00814 472.585 4.41341 472.585 4.87891ZM471.677 6.10938V4.72754C471.677 4.40853 471.658 4.12858 471.619 3.8877C471.583 3.64355 471.529 3.43522 471.458 3.2627C471.386 3.09017 471.295 2.9502 471.184 2.84277C471.077 2.73535 470.951 2.65723 470.808 2.6084C470.668 2.55632 470.51 2.53027 470.335 2.53027C470.12 2.53027 469.929 2.57096 469.763 2.65234C469.597 2.73047 469.457 2.85579 469.343 3.02832C469.233 3.20085 469.148 3.42708 469.089 3.70703C469.031 3.98698 469.001 4.32715 469.001 4.72754V6.10938C469.001 6.42839 469.019 6.70996 469.055 6.9541C469.094 7.19824 469.151 7.40983 469.226 7.58887C469.301 7.76465 469.392 7.90951 469.5 8.02344C469.607 8.13737 469.731 8.22201 469.871 8.27734C470.014 8.32943 470.172 8.35547 470.344 8.35547C470.566 8.35547 470.759 8.31315 470.925 8.22852C471.091 8.14388 471.23 8.01204 471.34 7.83301C471.454 7.65072 471.539 7.41797 471.594 7.13477C471.65 6.84831 471.677 6.50651 471.677 6.10938Z" fill="#A3A3A3"/>
<path d="M19.0002 372.419C19.0002 372.419 151.664 67.601 240.107 67.601C328.55 67.601 372.771 450.245 461.214 450.245C549.657 450.245 593.878 307.564 682.321 307.564C770.764 307.564 903.428 508.615 903.428 508.615" stroke="#52ABFE" stroke-width="2"/>
<path d="M461.385 380.359C459.427 380.359 457.549 379.582 456.163 378.197C454.778 376.812 454 374.934 454 372.976C453.999 371.017 454.777 369.139 456.161 367.753C457.545 366.368 459.423 365.589 461.382 365.588C463.34 365.587 465.219 366.364 466.604 367.748C467.99 369.132 468.769 371.01 468.771 372.968C468.772 374.927 467.996 376.806 466.612 378.192C465.229 379.578 463.351 380.357 461.393 380.359H461.385Z" fill="#52ABFE"/>
<path d="M461.385 75.7026C459.427 75.7026 457.549 74.9247 456.163 73.5401C454.778 72.1554 454 70.2773 454 68.3188C453.999 66.3604 454.777 64.4819 456.161 63.0965C457.545 61.7112 459.423 60.9323 461.382 60.9314C463.34 60.9304 465.219 61.7073 466.604 63.0913C467.99 64.4753 468.769 66.353 468.771 68.3114C468.772 70.2699 467.996 72.1488 466.612 73.5348C465.229 74.9209 463.351 75.7006 461.393 75.7026L461.385 75.7026Z" fill="#52ABFE"/>
<path d="M461.385 457.909C459.427 457.909 457.548 457.131 456.163 455.746C454.778 454.361 454 452.483 454 450.525C453.999 448.566 454.777 446.688 456.161 445.302C457.545 443.917 459.423 443.138 461.382 443.137C463.34 443.136 465.219 443.913 466.604 445.297C467.99 446.681 468.769 448.559 468.771 450.517C468.772 452.476 467.996 454.355 466.612 455.741C465.229 457.127 463.351 457.907 461.393 457.909H461.385Z" fill="#52ABFE"/>
<path d="M461.385 315.735C459.427 315.735 457.549 314.957 456.164 313.573C454.778 312.188 454 310.31 454 308.351C453.999 306.393 454.777 304.514 456.161 303.129C457.545 301.744 459.423 300.965 461.382 300.964C463.34 300.963 465.219 301.74 466.604 303.124C467.99 304.508 468.769 306.385 468.771 308.344C468.772 310.302 467.996 312.181 466.612 313.567C465.229 314.953 463.351 315.733 461.393 315.735H461.385Z" fill="#52ABFE"/>
<path d="M461.385 515.147C459.427 515.147 457.549 514.369 456.164 512.984C454.778 511.6 454 509.722 454 507.763C453.999 505.805 454.777 503.926 456.161 502.541C457.545 501.156 459.423 500.377 461.382 500.376C463.34 500.375 465.219 501.152 466.604 502.536C467.99 503.92 468.769 505.797 468.771 507.756C468.772 509.714 467.996 511.593 466.612 512.979C465.229 514.365 463.351 515.145 461.393 515.147H461.385Z" fill="#52ABFE"/>
</svg>
